<svg xmlns="http://www.w3.org/2000/svg" width="71.772" height="65" viewBox="0 0 71.772 65"><rect width="6" height="62" transform="translate(11.115)" fill="#fff"/><rect width="5" height="62" transform="translate(54.115)" fill="#fff"/><rect width="5.923" height="45.772" transform="translate(13 6.075) rotate(-90)" fill="#fff"/><rect width="5.923" height="71.772" transform="translate(0 65) rotate(-90)" fill="#fff"/><rect width="3.889" height="8.002" transform="translate(20.27 15.15) rotate(-90)" fill="#fff"/><rect width="3.889" height="8.002" transform="translate(20.27 24.226) rotate(-90)" fill="#fff"/><rect width="3.889" height="8.002" transform="translate(20.27 33.302) rotate(-90)" fill="#fff"/><rect width="3.889" height="8.002" transform="translate(20.27 42.377) rotate(-90)" fill="#fff"/><rect width="3.889" height="8.002" transform="translate(31.039 15.15) rotate(-90)" fill="#fff"/><rect width="3.889" height="8.002" transform="translate(31.039 24.226) rotate(-90)" fill="#fff"/><rect width="3.889" height="8.002" transform="translate(31.039 33.302) rotate(-90)" fill="#fff"/><rect width="3.889" height="8.002" transform="translate(31.039 42.377) rotate(-90)" fill="#fff"/><rect width="8.639" height="8.002" transform="translate(31.039 59.077) rotate(-90)" fill="#fff"/><rect width="3.889" height="8.002" transform="translate(42.348 15.15) rotate(-90)" fill="#fff"/><rect width="3.889" height="8.002" transform="translate(42.348 24.226) rotate(-90)" fill="#fff"/><rect width="3.889" height="8.002" transform="translate(42.348 33.302) rotate(-90)" fill="#fff"/><rect width="3.889" height="8.002" transform="translate(42.348 42.377) rotate(-90)" fill="#fff"/></svg>