<svg xmlns="http://www.w3.org/2000/svg" width="169.788" height="169.789" viewBox="0 0 169.788 169.789"><path d="M84.893,169.789a84.5,84.5,0,0,1-47.464-14.5A85.142,85.142,0,0,1,6.671,117.939,84.783,84.783,0,0,1,14.5,37.429,85.143,85.143,0,0,1,51.849,6.671,84.781,84.781,0,0,1,132.358,14.5,85.143,85.143,0,0,1,163.116,51.85a84.782,84.782,0,0,1-7.827,80.51,85.142,85.142,0,0,1-37.351,30.758A84.363,84.363,0,0,1,84.893,169.789Zm0-156.828a71.934,71.934,0,1,0,71.933,71.933A72.015,72.015,0,0,0,84.9,12.961Z" fill="#c59b6d"/><path d="M30.916,68.8,2.1,39.987A7.169,7.169,0,0,1,12.24,29.849L35.985,53.594,87.477,2.1A7.169,7.169,0,0,1,97.616,12.239L41.054,68.8a7.169,7.169,0,0,1-10.139,0Z" transform="translate(34.484 60.411) rotate(-7)" fill="#c59b6d"/></svg>