<svg xmlns="http://www.w3.org/2000/svg" width="91.898" height="50.043" viewBox="0 0 91.898 50.043"><path d="M0,14.306V0H29.105V0H42.883a14.457,14.457,0,0,1-4.334,10.118,14.449,14.449,0,0,1-9.443,4.164v.02Z" transform="translate(16.847 26.547)" fill="#fff"/><path d="M16.85,0,33.7,18.382H0Z" transform="translate(0 50.043) rotate(-90)" fill="#fff"/><path d="M0,14.306V0H29.105V0H42.883a14.457,14.457,0,0,1-4.334,10.118,14.449,14.449,0,0,1-9.443,4.164v.02Z" transform="translate(75.052 23.496) rotate(180)" fill="#fff"/><path d="M16.85,0,33.7,18.382H0Z" transform="translate(91.898) rotate(90)" fill="#fff"/></svg>