<svg xmlns="http://www.w3.org/2000/svg" width="51.875" height="58.292" viewBox="0 0 51.875 58.292"><path d="M7907.435,1902.306c-10.271-17.5-11.766-18.359-11.766-18.359h-21.626s-1.5.859-11.766,18.359,6.273,24.2,6.273,24.2h32.6S7917.7,1919.806,7907.435,1902.306Zm-15.393,5.357a7.191,7.191,0,0,1-.814,3.571,5.162,5.162,0,0,1-2.369,2.21,7.6,7.6,0,0,1-1.865.569v2.623h-3.316v-2.545a9.756,9.756,0,0,1-1.381-.279,9.525,9.525,0,0,1-2.432-1.038,7.056,7.056,0,0,1-1.813-1.54l1.844-2.969a7.5,7.5,0,0,0,2.35,1.8,6.47,6.47,0,0,0,2.751.614,4.23,4.23,0,0,0,2.74-.77,2.75,2.75,0,0,0,.928-2.243v-.022a2.508,2.508,0,0,0-.433-1.552,2.626,2.626,0,0,0-1.124-.859,10.048,10.048,0,0,0-1.782-.5.137.137,0,0,0-.062-.022.205.205,0,0,1-.082-.011.421.421,0,0,0-.113-.022c-.053-.011-.083-.011-.124-.022a17.545,17.545,0,0,1-3.1-.87,4.515,4.515,0,0,1-2.041-1.752,6.486,6.486,0,0,1-.855-3.616v-.011a7.907,7.907,0,0,1,.772-3.672,5.244,5.244,0,0,1,2.3-2.243,6.3,6.3,0,0,1,1.66-.569v-2.645h3.316v2.556c.237.034.485.078.722.134a9.025,9.025,0,0,1,1.978.725,11.739,11.739,0,0,1,1.875,1.183l-1.679,3.025a8.225,8.225,0,0,0-2.091-1.239,5.575,5.575,0,0,0-2.062-.424,3.922,3.922,0,0,0-2.535.726,2.633,2.633,0,0,0-.875,2.12v.011a2.586,2.586,0,0,0,.5,1.674,2.821,2.821,0,0,0,1.226.882,16.586,16.586,0,0,0,2.029.58c.032,0,.052.011.072.011a.229.229,0,0,0,.083.022l.134.033a.644.644,0,0,1,.145.022,14.254,14.254,0,0,1,2.853.982,4.674,4.674,0,0,1,1.906,1.864,6.672,6.672,0,0,1,.773,3.471Z" transform="translate(-7858.916 -1868.211)" fill="#fff"/><path d="M7894.585,1881.365H7874.3c-3.019-5.937-1.071-9.073-1.071-9.073h7.573a.981.981,0,0,1,.113-.268v-.011c.535-1.049,2.431-1.8,3.234-2.076a2.143,2.143,0,0,1,.289-.089,2.183,2.183,0,0,1,.288.089c.8.279,2.7,1.027,3.234,2.076v.011a.955.955,0,0,1,.114.268h7.571S7897.593,1875.427,7894.585,1881.365Z" transform="translate(-7858.501 -1869.847)" fill="#fff"/></svg>