<svg xmlns="http://www.w3.org/2000/svg" width="57" height="585.951" viewBox="0 0 57 585.951"><line y2="75.852" transform="translate(28.502 56.401)" fill="none" stroke="#c59b6d" stroke-linecap="round" stroke-width="6"/><line y2="75.852" transform="translate(28.502 319.922)" fill="none" stroke="#c59b6d" stroke-linecap="round" stroke-width="6"/><line y2="75.852" transform="translate(28.502 453.211)" fill="none" stroke="#c59b6d" stroke-linecap="round" stroke-width="6"/><line y2="75.852" transform="translate(28.502 188.815)" fill="none" stroke="#c59b6d" stroke-linecap="round" stroke-width="6"/><circle cx="17.5" cy="17.5" r="17.5" transform="translate(11 11)" fill="#c59b6d"/><circle cx="17.5" cy="17.5" r="17.5" transform="translate(11 274)" fill="#c59b6d"/><ellipse cx="17.328" cy="17.328" rx="17.328" ry="17.328" transform="translate(11.174 143.37)" fill="#c59b6d"/><ellipse cx="17.328" cy="17.328" rx="17.328" ry="17.328" transform="translate(11.174 406.89)" fill="#c59b6d"/><ellipse cx="17.328" cy="17.328" rx="17.328" ry="17.328" transform="translate(11.174 540.179)" fill="#c59b6d"/><path d="M28.5,57A28.508,28.508,0,0,1,17.406,2.24,28.507,28.507,0,0,1,39.593,54.76,28.318,28.318,0,0,1,28.5,57Zm0-51.4A22.9,22.9,0,1,0,51.4,28.5,22.929,22.929,0,0,0,28.5,5.6Z" fill="#c59b6d"/><path d="M28.5,57A28.508,28.508,0,0,1,17.406,2.24,28.507,28.507,0,0,1,39.593,54.76,28.318,28.318,0,0,1,28.5,57Zm0-51.4A22.9,22.9,0,1,0,51.4,28.5,22.929,22.929,0,0,0,28.5,5.6Z" transform="translate(0 263)" fill="#c59b6d"/><path d="M28.445,56.888A28.452,28.452,0,0,1,17.372,2.235,28.452,28.452,0,0,1,39.515,54.653,28.261,28.261,0,0,1,28.445,56.888Zm0-51.3A22.859,22.859,0,1,0,51.3,28.444,22.885,22.885,0,0,0,28.445,5.585Z" transform="translate(0.059 132.253)" fill="#c59b6d"/><path d="M28.445,56.888A28.452,28.452,0,0,1,17.372,2.235,28.452,28.452,0,0,1,39.515,54.653,28.261,28.261,0,0,1,28.445,56.888Zm0-51.3A22.859,22.859,0,1,0,51.3,28.444,22.885,22.885,0,0,0,28.445,5.585Z" transform="translate(0.059 395.773)" fill="#c59b6d"/><path d="M28.445,56.888A28.452,28.452,0,0,1,17.372,2.235,28.452,28.452,0,0,1,39.515,54.653,28.261,28.261,0,0,1,28.445,56.888Zm0-51.3A22.859,22.859,0,1,0,51.3,28.444,22.885,22.885,0,0,0,28.445,5.585Z" transform="translate(0.059 529.063)" fill="#c59b6d"/></svg>